# xmcd
#
# Track frame offsets:
#	150
#	12640
#	24575
#	39600
#	53565
#	70667
#	87013
#	103366
#	117396
#	132278
#	146318
#	159930
#	174273
#	192754
#	209487
#	226193
#	242964
#	258081
#
# Disc length: 3665 seconds
#
# Revision: 1
# Processed by: cddbd v1.5.2PL0 Copyright (c) Steve Scherf et al.
# Submitted via: audiograbber 1.83.01
#
DISCID=ee0e4f12
DTITLE=Various Artist - Country Radio January 2012
DYEAR=2012
DGENRE=Country
TTITLE0=Million Dollar View Trace Adkins
TTITLE1=You gonna fly Keith Urban
TTITLE2=If you cant make money David Bradley
TTITLE3=Georgia Peaches Lauren Alaina
TTITLE4=My hometown Uncle Kracker
TTITLE5=Angel Eyes Love and Theft
TTITLE6=Hes mine Rodney Atkins
TTITLE7=Loves gonna make it alright george Strait
TTITLE8=Kissed you good night Gloriana
TTITLE9=Like my dog clean edit Billy currington
TTITLE10=When i get it clean edit Craig campbell
TTITLE11=Wanna make you love me Andy Gibson
TTITLE12=We all make mistakes Levi Hart
TTITLE13=Run Sugarland ft matt Nathanson
TTITLE14=Any way the wind blows Mark Cooke
TTITLE15=Red solo cup Album Version Toby Keith
TTITLE16=Red solo cup Vegetables version Toby Keith
TTITLE17=Red solo cup Bleeped Version Toby Keith
EXTD=
EXTT0=
EXTT1=
EXTT2=
EXTT3=
EXTT4=
EXTT5=
EXTT6=
EXTT7=
EXTT8=
EXTT9=
EXTT10=
EXTT11=
EXTT12=
EXTT13=
EXTT14=
EXTT15=
EXTT16=
EXTT17=
PLAYORDER=
